<svg width="20" height="20" viewBox="0 0 20 20" fill="none" xmlns="http://www.w3.org/2000/svg">
<path d="M19.6191 10.859C19.3652 11.1126 19.0592 11.2394 18.7012 11.2394C18.3431 11.2394 18.0404 11.1159 17.793 10.8687L17.5 10.576V18.7513C17.5 19.0895 17.3796 19.3821 17.1387 19.6293C16.8978 19.8764 16.6016 20 16.25 20H12.5V14.3807C12.5 14.2116 12.4382 14.0653 12.3145 13.9417C12.1908 13.8182 12.0443 13.7564 11.875 13.7564H8.125C7.95573 13.7564 7.80925 13.8182 7.68555 13.9417C7.56185 14.0653 7.5 14.2116 7.5 14.3807V20H3.75C3.39844 20 3.10221 19.8764 2.86133 19.6293C2.62044 19.3821 2.5 19.0895 2.5 18.7513V10.576L2.20703 10.8687C1.95964 11.1159 1.6569 11.2394 1.29883 11.2394C0.940755 11.2394 0.634766 11.1126 0.380859 10.859C0.126953 10.6053 0 10.2996 0 9.94193C0 9.58422 0.123698 9.2818 0.371094 9.03466L9.04297 0.371644C9.30339 0.111493 9.6224 -0.0120784 10 0.000929109C10.3776 -0.0120784 10.6966 0.111493 10.957 0.371644L19.6289 9.03466C19.8763 9.2818 20 9.58422 20 9.94193C20 10.2996 19.873 10.6053 19.6191 10.859Z" fill="#0F1969"/>
</svg>
