<svg width="27" height="27" viewBox="0 0 27 27" fill="none" xmlns="http://www.w3.org/2000/svg">
<path d="M22.7285 16.9066C22.7285 16.6746 22.7918 16.4531 22.9025 16.2633C22.9342 16.2053 22.9764 16.1525 23.0133 16.0998C23.9308 14.7287 24.4687 13.0887 24.4687 11.3379C24.4846 6.47578 20.3818 2.53125 15.3088 2.53125C10.8844 2.53125 7.19296 5.54238 6.32811 9.53965C6.20155 10.125 6.133 10.7209 6.133 11.3432C6.133 16.2105 10.0775 20.2605 15.1506 20.2605C15.9574 20.2605 17.0437 20.018 17.6396 19.8545C18.2355 19.691 18.8262 19.4748 18.9791 19.4168C19.132 19.3588 19.3008 19.3271 19.4695 19.3271C19.6594 19.3271 19.8387 19.3641 20.0021 19.4326L22.9922 20.4926C22.9922 20.4926 23.1187 20.5453 23.1978 20.5453C23.4299 20.5453 23.6197 20.3607 23.6197 20.1234C23.6197 20.0707 23.5933 19.9811 23.5933 19.9811L22.7285 16.9066Z" fill="#0F1969"/>
<path d="M16.7959 20.6982C16.6061 20.751 16.3635 20.809 16.0998 20.867C15.5461 20.983 14.8395 21.1043 14.3068 21.1043C9.23379 21.1043 5.28926 17.0543 5.28926 12.1869C5.28926 11.8389 5.32617 11.3959 5.36836 11.0584C5.4 10.8316 5.43691 10.6049 5.48965 10.3834C5.54238 10.1461 5.60566 9.90879 5.67422 9.67676L5.25234 10.0512C3.52266 11.5594 2.53125 13.7109 2.53125 15.9521C2.53125 17.4973 2.97949 18.9844 3.83906 20.2764C3.96035 20.4609 4.02891 20.6033 4.00781 20.6982C3.98672 20.7932 3.38027 23.9678 3.38027 23.9678C3.34863 24.1207 3.40664 24.2736 3.52266 24.3738C3.60176 24.4371 3.69668 24.4688 3.7916 24.4688C3.84434 24.4688 3.89707 24.4582 3.94453 24.4371L6.90293 23.2717C6.99785 23.2348 7.09805 23.2137 7.20352 23.2137C7.20352 23.2137 7.33008 23.2031 7.53574 23.2822C8.53242 23.6725 9.63457 23.915 10.7367 23.915C13.1941 23.915 15.5039 22.8551 17.0701 21.0094C17.0701 21.0094 17.2389 20.7773 17.434 20.5031C17.2389 20.5717 17.0174 20.6402 16.7959 20.6982Z" fill="#0F1969"/>
</svg>
