<svg width="12" height="17" viewBox="0 0 12 17" fill="none" xmlns="http://www.w3.org/2000/svg">
<path d="M11 5C11 3.619 10.44 2.369 9.536 1.465C8.631 0.56 7.381 0 6 0C4.619 0 3.369 0.56 2.464 1.465C1.56 2.369 1 3.619 1 5C1 6.381 1.56 7.631 2.464 8.535C3.369 9.44 4.619 10 6 10C7.381 10 8.631 9.44 9.536 8.535C10.0009 8.07126 10.3695 7.52023 10.6207 6.91358C10.872 6.30693 11.0009 5.65662 11 5ZM0 15C0 16 2.25 17 6 17C9.518 17 12 16 12 15C12 13 9.646 11 6 11C2.25 11 0 13 0 15Z" fill="#0F1969"/>
</svg>
