<svg width="65" height="48" viewBox="0 0 65 48" fill="none" xmlns="http://www.w3.org/2000/svg">
<ellipse cx="33.1161" cy="42" rx="6.50784" ry="6" fill="#0F1969"/>
<rect width="65" height="27.5758" rx="7" fill="#0F1969"/>
<path d="M33.0702 35L27.1448 27.0455H38.9957L33.0702 35Z" fill="#0F1969"/>
<path d="M10.8561 11.4V17H10.2001L6.84007 12.824V17H6.04007V11.4H6.69607L10.0561 15.576V11.4H10.8561ZM16.9099 14.168H17.6779V16.352C17.4005 16.5813 17.0779 16.7573 16.7099 16.88C16.3419 17.0027 15.9579 17.064 15.5579 17.064C14.9925 17.064 14.4832 16.9413 14.0299 16.696C13.5765 16.4453 13.2192 16.104 12.9579 15.672C12.7019 15.2347 12.5739 14.744 12.5739 14.2C12.5739 13.656 12.7019 13.1653 12.9579 12.728C13.2192 12.2907 13.5765 11.9493 14.0299 11.704C14.4885 11.4587 15.0032 11.336 15.5739 11.336C16.0219 11.336 16.4272 11.4107 16.7899 11.56C17.1579 11.704 17.4699 11.9173 17.7259 12.2L17.2299 12.696C16.7819 12.264 16.2405 12.048 15.6059 12.048C15.1792 12.048 14.7952 12.1413 14.4539 12.328C14.1179 12.5093 13.8539 12.7653 13.6619 13.096C13.4699 13.4213 13.3739 13.7893 13.3739 14.2C13.3739 14.6053 13.4699 14.9733 13.6619 15.304C13.8539 15.6293 14.1179 15.8853 14.4539 16.072C14.7952 16.2587 15.1765 16.352 15.5979 16.352C16.0992 16.352 16.5365 16.232 16.9099 15.992V14.168ZM24.5232 11.4V17H23.8672L20.5072 12.824V17H19.7072V11.4H20.3632L23.7232 15.576V11.4H24.5232ZM30.623 11.4V17H29.831V12.096H28.567V11.4H30.623ZM33.9456 13.632C34.7456 13.632 35.3323 13.784 35.7056 14.088C36.0843 14.3867 36.2736 14.7973 36.2736 15.32C36.2736 15.6507 36.1936 15.9493 36.0336 16.216C35.8789 16.4773 35.6416 16.6853 35.3216 16.84C35.0069 16.9893 34.6176 17.064 34.1536 17.064C33.7589 17.064 33.3776 17.0053 33.0096 16.888C32.6416 16.7653 32.3376 16.5973 32.0976 16.384L32.4656 15.752C32.6576 15.9333 32.9029 16.08 33.2016 16.192C33.5003 16.2987 33.8149 16.352 34.1456 16.352C34.5669 16.352 34.8923 16.264 35.1216 16.088C35.3563 15.9067 35.4736 15.6613 35.4736 15.352C35.4736 15.016 35.3456 14.7627 35.0896 14.592C34.8336 14.416 34.3963 14.328 33.7776 14.328H32.5056L32.8016 11.4H35.9616V12.096H33.4736L33.3216 13.632H33.9456ZM39.725 17.064C39.2823 17.064 38.8876 16.952 38.541 16.728C38.1996 16.4987 37.9303 16.168 37.733 15.736C37.5356 15.304 37.437 14.792 37.437 14.2C37.437 13.608 37.5356 13.096 37.733 12.664C37.9303 12.232 38.1996 11.904 38.541 11.68C38.8876 11.4507 39.2823 11.336 39.725 11.336C40.1623 11.336 40.5516 11.4507 40.893 11.68C41.2396 11.904 41.5116 12.232 41.709 12.664C41.9063 13.096 42.005 13.608 42.005 14.2C42.005 14.792 41.9063 15.304 41.709 15.736C41.5116 16.168 41.2396 16.4987 40.893 16.728C40.5516 16.952 40.1623 17.064 39.725 17.064ZM39.725 16.352C40.173 16.352 40.5303 16.168 40.797 15.8C41.069 15.432 41.205 14.8987 41.205 14.2C41.205 13.5013 41.069 12.968 40.797 12.6C40.5303 12.232 40.173 12.048 39.725 12.048C39.2716 12.048 38.909 12.232 38.637 12.6C38.3703 12.968 38.237 13.5013 38.237 14.2C38.237 14.8987 38.3703 15.432 38.637 15.8C38.909 16.168 39.2716 16.352 39.725 16.352ZM45.5585 17.064C45.1159 17.064 44.7212 16.952 44.3745 16.728C44.0332 16.4987 43.7639 16.168 43.5665 15.736C43.3692 15.304 43.2705 14.792 43.2705 14.2C43.2705 13.608 43.3692 13.096 43.5665 12.664C43.7639 12.232 44.0332 11.904 44.3745 11.68C44.7212 11.4507 45.1159 11.336 45.5585 11.336C45.9959 11.336 46.3852 11.4507 46.7265 11.68C47.0732 11.904 47.3452 12.232 47.5425 12.664C47.7399 13.096 47.8385 13.608 47.8385 14.2C47.8385 14.792 47.7399 15.304 47.5425 15.736C47.3452 16.168 47.0732 16.4987 46.7265 16.728C46.3852 16.952 45.9959 17.064 45.5585 17.064ZM45.5585 16.352C46.0065 16.352 46.3639 16.168 46.6305 15.8C46.9025 15.432 47.0385 14.8987 47.0385 14.2C47.0385 13.5013 46.9025 12.968 46.6305 12.6C46.3639 12.232 46.0065 12.048 45.5585 12.048C45.1052 12.048 44.7425 12.232 44.4705 12.6C44.2039 12.968 44.0705 13.5013 44.0705 14.2C44.0705 14.8987 44.2039 15.432 44.4705 15.8C44.7425 16.168 45.1052 16.352 45.5585 16.352ZM51.3921 17.064C50.9494 17.064 50.5548 16.952 50.2081 16.728C49.8668 16.4987 49.5974 16.168 49.4001 15.736C49.2028 15.304 49.1041 14.792 49.1041 14.2C49.1041 13.608 49.2028 13.096 49.4001 12.664C49.5974 12.232 49.8668 11.904 50.2081 11.68C50.5548 11.4507 50.9494 11.336 51.3921 11.336C51.8294 11.336 52.2188 11.4507 52.5601 11.68C52.9068 11.904 53.1788 12.232 53.3761 12.664C53.5734 13.096 53.6721 13.608 53.6721 14.2C53.6721 14.792 53.5734 15.304 53.3761 15.736C53.1788 16.168 52.9068 16.4987 52.5601 16.728C52.2188 16.952 51.8294 17.064 51.3921 17.064ZM51.3921 16.352C51.8401 16.352 52.1974 16.168 52.4641 15.8C52.7361 15.432 52.8721 14.8987 52.8721 14.2C52.8721 13.5013 52.7361 12.968 52.4641 12.6C52.1974 12.232 51.8401 12.048 51.3921 12.048C50.9388 12.048 50.5761 12.232 50.3041 12.6C50.0374 12.968 49.9041 13.5013 49.9041 14.2C49.9041 14.8987 50.0374 15.432 50.3041 15.8C50.5761 16.168 50.9388 16.352 51.3921 16.352ZM57.2256 17.064C56.783 17.064 56.3883 16.952 56.0416 16.728C55.7003 16.4987 55.431 16.168 55.2336 15.736C55.0363 15.304 54.9376 14.792 54.9376 14.2C54.9376 13.608 55.0363 13.096 55.2336 12.664C55.431 12.232 55.7003 11.904 56.0416 11.68C56.3883 11.4507 56.783 11.336 57.2256 11.336C57.663 11.336 58.0523 11.4507 58.3936 11.68C58.7403 11.904 59.0123 12.232 59.2096 12.664C59.407 13.096 59.5056 13.608 59.5056 14.2C59.5056 14.792 59.407 15.304 59.2096 15.736C59.0123 16.168 58.7403 16.4987 58.3936 16.728C58.0523 16.952 57.663 17.064 57.2256 17.064ZM57.2256 16.352C57.6736 16.352 58.031 16.168 58.2976 15.8C58.5696 15.432 58.7056 14.8987 58.7056 14.2C58.7056 13.5013 58.5696 12.968 58.2976 12.6C58.031 12.232 57.6736 12.048 57.2256 12.048C56.7723 12.048 56.4096 12.232 56.1376 12.6C55.871 12.968 55.7376 13.5013 55.7376 14.2C55.7376 14.8987 55.871 15.432 56.1376 15.8C56.4096 16.168 56.7723 16.352 57.2256 16.352Z" fill="#D1D1D1"/>
</svg>
