<svg width="21" height="21" viewBox="0 0 21 21" fill="none" xmlns="http://www.w3.org/2000/svg">
<path d="M18.375 0.375H2.625C2.02826 0.375 1.45597 0.612053 1.03401 1.03401C0.612053 1.45597 0.375 2.02826 0.375 2.625V18.375C0.375 18.9717 0.612053 19.544 1.03401 19.966C1.45597 20.3879 2.02826 20.625 2.625 20.625H18.375C19.6125 20.625 20.625 19.6125 20.625 18.375V2.625C20.625 1.3875 19.6125 0.375 18.375 0.375ZM15 11.625H11.625V15C11.625 15.6188 11.1188 16.125 10.5 16.125C9.88125 16.125 9.375 15.6188 9.375 15V11.625H6C5.38125 11.625 4.875 11.1188 4.875 10.5C4.875 9.88125 5.38125 9.375 6 9.375H9.375V6C9.375 5.38125 9.88125 4.875 10.5 4.875C11.1188 4.875 11.625 5.38125 11.625 6V9.375H15C15.6188 9.375 16.125 9.88125 16.125 10.5C16.125 11.1188 15.6188 11.625 15 11.625Z" fill="#0F1969"/>
</svg>
